<svg xmlns="http://www.w3.org/2000/svg" viewBox="0 0 800 600" role="img" aria-labelledby="title desc">
<title id="title">Floral inventory placeholder</title><desc id="desc">Soft floral illustration used when an inventory item has no uploaded photo.</desc>
<defs><linearGradient id="bg" x1="0" y1="0" x2="1" y2="1"><stop stop-color="#f8edf2"/><stop offset="1" stop-color="#efe2e8"/></linearGradient></defs>
<rect width="800" height="600" rx="48" fill="url(#bg)"/><g transform="translate(400 300)"><path d="M0 130C-18 72-8 19 42-38" fill="none" stroke="#66805f" stroke-width="18" stroke-linecap="round"/><path d="M12 58c58-12 96 7 114 54-55 13-92-6-114-54Z" fill="#9cb58f"/><path d="M-7 92c-52-5-84 17-96 62 51 6 83-16 96-62Z" fill="#7d9b73"/><g fill="#c97e9b"><ellipse rx="72" ry="42" transform="rotate(0) translate(0 -105)"/><ellipse rx="72" ry="42" transform="rotate(72) translate(0 -105)"/><ellipse rx="72" ry="42" transform="rotate(144) translate(0 -105)"/><ellipse rx="72" ry="42" transform="rotate(216) translate(0 -105)"/><ellipse rx="72" ry="42" transform="rotate(288) translate(0 -105)"/></g><circle cy="-105" r="42" fill="#f4c9a5"/></g></svg>